<svg xmlns="http://www.w3.org/2000/svg" viewBox="0 0 64 56" fill="none"><defs><linearGradient id="ix-g" x1="0" y1="0" x2="64" y2="56" gradientUnits="userSpaceOnUse"><stop offset="0%" stop-color="#5ce0f8"/><stop offset="50%" stop-color="#9b6dd7"/><stop offset="100%" stop-color="#e472c4"/></linearGradient></defs><path d="M24 14Q32 2 42 10Q46 4 54 8Q56 14 50 16" stroke="url(#ix-g)" stroke-width="2.5" stroke-linecap="round" fill="none" opacity=".65"/><path d="M20 8Q26 18 32 28Q38 38 44 48" stroke="url(#ix-g)" stroke-width="5" stroke-linecap="round"/><path d="M44 8Q38 18 32 28Q26 38 20 48" stroke="url(#ix-g)" stroke-width="5" stroke-linecap="round"/><line x1="24" y1="20" x2="6" y2="20" stroke="#5ce0f8" stroke-width="1.5" stroke-linecap="round"/><polyline points="26,28 12,28 12,36 4,36" stroke="#7ba0e8" stroke-width="1.5" stroke-linecap="round" stroke-linejoin="round" fill="none"/><line x1="24" y1="36" x2="8" y2="36" stroke="#9b6dd7" stroke-width="1.5" stroke-linecap="round"/><circle cx="5" cy="20" r="2" fill="#5ce0f8"/><circle cx="3" cy="36" r="2" fill="#7ba0e8"/><circle cx="7" cy="36" r="2" fill="#9b6dd7"/></svg>
